<?xml version="1.0" standalone="no"?>
<!DOCTYPE svg PUBLIC "-//W3C//DTD SVG 20010904//EN"
 "http://www.w3.org/TR/2001/REC-SVG-20010904/DTD/svg10.dtd">
<svg version="1.0" xmlns="http://www.w3.org/2000/svg"
 width="225.000000pt" height="225.000000pt" viewBox="0 0 225.000000 225.000000"
 preserveAspectRatio="xMidYMid meet">

<g transform="translate(0.000000,225.000000) scale(0.100000,-0.100000)"
fill="#000000" stroke="none">
<path d="M975 2239 c-366 -46 -713 -302 -870 -642 -162 -350 -130 -771 82
-1090 63 -95 179 -216 277 -289 384 -286 938 -286 1322 0 570 425 621 1235
108 1722 -248 236 -574 342 -919 299z m354 -164 c295 -62 557 -274 683 -553
58 -127 81 -240 81 -397 0 -118 -4 -155 -26 -235 -93 -355 -352 -614 -707
-707 -137 -37 -333 -37 -470 0 -364 96 -635 375 -717 740 -21 97 -21 307 0
404 104 465 522 789 989 767 53 -2 129 -11 167 -19z"/>
<path d="M726 1709 l-26 -20 0 -564 0 -564 27 -21 c18 -14 36 -20 53 -17 27 6
930 524 961 553 26 24 25 75 -3 101 -37 34 -943 553 -965 553 -11 0 -32 -9
-47 -21z m464 -384 c179 -103 329 -191 333 -195 5 -4 -128 -86 -295 -182 -167
-97 -320 -186 -340 -198 l-38 -22 0 397 c0 218 3 394 8 392 4 -3 153 -89 332
-192z"/>
</g>
</svg>
