<?xml version="1.0" standalone="no"?>
<!DOCTYPE svg PUBLIC "-//W3C//DTD SVG 20010904//EN"
 "http://www.w3.org/TR/2001/REC-SVG-20010904/DTD/svg10.dtd">
<svg version="1.0" xmlns="http://www.w3.org/2000/svg"
 width="225.000000pt" height="225.000000pt" viewBox="0 0 225.000000 225.000000"
 preserveAspectRatio="xMidYMid meet">

<g transform="translate(0.000000,225.000000) scale(0.100000,-0.100000)"
fill="#000000" stroke="none">
<path d="M975 2239 c-169 -21 -382 -107 -516 -208 -144 -109 -261 -249 -339
-406 -178 -359 -152 -788 67 -1118 63 -95 179 -216 277 -289 384 -286 938
-286 1322 0 570 425 621 1235 108 1722 -248 236 -574 342 -919 299z m335 -275
c398 -90 673 -432 673 -839 0 -479 -379 -858 -858 -858 -479 0 -858 379 -858
858 0 277 123 521 348 692 117 89 257 142 440 167 48 7 185 -4 255 -20z"/>
<path d="M750 1125 l0 -375 375 0 375 0 0 375 0 375 -375 0 -375 0 0 -375z"/>
</g>
</svg>
